<svg width="33" height="33" viewBox="0 0 33 33" fill="none" xmlns="http://www.w3.org/2000/svg">
<rect x="1.27344" y="0.813721" width="31" height="31" rx="15.5" fill="#23272C"/>
<rect x="1.27344" y="0.813721" width="31" height="31" rx="15.5" stroke="#41464B"/>
<g clip-path="url(#clip0_5_2344)">
<mask id="path-2-inside-1_5_2344" fill="white">
<path d="M25.1069 11.3136C25.1069 10.397 24.3569 9.64697 23.4402 9.64697H10.1069C9.19019 9.64697 8.44019 10.397 8.44019 11.3136V21.3136C8.44019 22.2303 9.19019 22.9803 10.1069 22.9803H23.4402C24.3569 22.9803 25.1069 22.2303 25.1069 21.3136V11.3136ZM23.4402 11.3136L16.7735 15.4803L10.1069 11.3136H23.4402ZM23.4402 21.3136H10.1069V12.9803L16.7735 17.147L23.4402 12.9803V21.3136Z"/>
</mask>
<path d="M23.4402 11.3136L24.5002 13.0096L30.4138 9.31364H23.4402V11.3136ZM16.7735 15.4803L15.7135 17.1763L16.7735 17.8388L17.8335 17.1763L16.7735 15.4803ZM10.1069 11.3136V9.31364H3.13326L9.04685 13.0096L10.1069 11.3136ZM23.4402 21.3136V23.3136H25.4402V21.3136H23.4402ZM10.1069 21.3136H8.10685V23.3136H10.1069V21.3136ZM10.1069 12.9803L11.1669 11.2843L8.10685 9.37181V12.9803H10.1069ZM16.7735 17.147L15.7135 18.843L16.7735 19.5055L17.8335 18.843L16.7735 17.147ZM23.4402 12.9803H25.4402V9.37181L22.3802 11.2843L23.4402 12.9803ZM27.1069 11.3136C27.1069 9.2924 25.4614 7.64697 23.4402 7.64697V11.647C23.2523 11.647 23.1069 11.5015 23.1069 11.3136H27.1069ZM23.4402 7.64697H10.1069V11.647H23.4402V7.64697ZM10.1069 7.64697C8.08562 7.64697 6.44019 9.2924 6.44019 11.3136H10.4402C10.4402 11.5015 10.2948 11.647 10.1069 11.647V7.64697ZM6.44019 11.3136V21.3136H10.4402V11.3136H6.44019ZM6.44019 21.3136C6.44019 23.3349 8.08562 24.9803 10.1069 24.9803V20.9803C10.2948 20.9803 10.4402 21.1257 10.4402 21.3136H6.44019ZM10.1069 24.9803H23.4402V20.9803H10.1069V24.9803ZM23.4402 24.9803C25.4614 24.9803 27.1069 23.3349 27.1069 21.3136H23.1069C23.1069 21.1257 23.2523 20.9803 23.4402 20.9803V24.9803ZM27.1069 21.3136V11.3136H23.1069V21.3136H27.1069ZM22.3802 9.61764L15.7135 13.7843L17.8335 17.1763L24.5002 13.0096L22.3802 9.61764ZM17.8335 13.7843L11.1669 9.61764L9.04685 13.0096L15.7135 17.1763L17.8335 13.7843ZM10.1069 13.3136H23.4402V9.31364H10.1069V13.3136ZM23.4402 19.3136H10.1069V23.3136H23.4402V19.3136ZM12.1069 21.3136V12.9803H8.10685V21.3136H12.1069ZM9.04685 14.6763L15.7135 18.843L17.8335 15.451L11.1669 11.2843L9.04685 14.6763ZM17.8335 18.843L24.5002 14.6763L22.3802 11.2843L15.7135 15.451L17.8335 18.843ZM21.4402 12.9803V21.3136H25.4402V12.9803H21.4402Z" fill="#BFBFBF" mask="url(#path-2-inside-1_5_2344)"/>
</g>
<defs>
<clipPath id="clip0_5_2344">
<rect width="20" height="20" fill="white" transform="translate(6.77344 6.31372)"/>
</clipPath>
</defs>
</svg>
